# xmcd
#
# Track frame offsets:
#	150
#	18300
#	38361
#	60207
#	75789
#	99492
#	116587
#	134842
#	150665
#	168012
#	183777
#
# Disc length: 2715 seconds
#
# Revision: 0
# Processed by: cddbd v1.5.2PL0 Copyright (c) Steve Scherf et al.
# Submitted via: dBpowerAMP V4.0
#
DISCID=6f0a990b
DTITLE=James Justin and Co. - Dark Country
DYEAR=2011
DGENRE=Indie Americana
TTITLE0=City Light Strings
TTITLE1=Dark Country
TTITLE2=Give You My Heart
TTITLE3=Johnny Roslyn
TTITLE4=Song for the Lost
TTITLE5=Simple Love
TTITLE6=Gone Daddy Gone
TTITLE7=Love Me Too
TTITLE8=Mother Earth
TTITLE9=Tied to the Tracks
TTITLE10=Follow Through
EXTD=
EXTT0=
EXTT1=
EXTT2=
EXTT3=
EXTT4=
EXTT5=
EXTT6=
EXTT7=
EXTT8=
EXTT9=
EXTT10=
PLAYORDER=
